<svg version="1.1" xmlns="http://www.w3.org/2000/svg" xmlns:xlink="http://www.w3.org/1999/xlink" width="109" height="108.5" viewBox="0,0,109,108.5"><g transform="translate(-185.5,-126)"><g data-paper-data="{&quot;isPaintingLayer&quot;:true}" stroke-miterlimit="10" stroke-dasharray="" stroke-dashoffset="0" style="mix-blend-mode: normal"><path d="M186,180c0,-29.82337 24.17663,-54 54,-54c29.82338,0 54,24.17663 54,54c0,29.82338 -24.17662,54 -54,54c-29.82337,0 -54,-24.17662 -54,-54z" fill="#00a8f3" fill-rule="nonzero" stroke="none" stroke-width="0" stroke-linecap="butt" stroke-linejoin="miter"/><path d="M185.5,180c0,-1.18441 0.0382,-0.27596 0.0382,-0.27596l108.77632,0.27136c0,0 0.18548,-1.39538 0.18548,0.0046c0,30.09952 -24.40048,54.5 -54.5,54.5c-30.09952,0 -54.5,-24.40048 -54.5,-54.5z" fill="#ffca18" fill-rule="nonzero" stroke="none" stroke-width="0" stroke-linecap="butt" stroke-linejoin="miter"/><path d="M250.7,150.95445c0.3,-0.2 0.8,-0.1 0.9,0.3l2.6,10.7c0,0 6.4,4.7 8.3,8c3.2,5.5 3.3,10 3.3,10c0,0 7.1,2.1 8.3,7.8c1.2,5.7 -3.2,16.5 -22,20.2c-18.8,3.7 -33.9,-1.4 -41,-12.8c-7.1,-11.4 4.1,-25 3.5,-24.2l-2.1,-17.9c-0.1,-0.4 0.4,-0.7 0.8,-0.5l12.1,7.9c0,0 4.5,-1.7 9.2,-1.9c2.8,-0.2 5.2,0 7.5,0.4z" fill="#5e5e5e" fill-rule="evenodd" stroke="#ffffff" stroke-width="1.2" stroke-linecap="butt" stroke-linejoin="miter"/><path d="M234,191.05445c0,-0.4 0.4,-0.7 0.8,-0.6c1.9,0.7 7.3,2.3 13.3,2.7c5.4,0.3 8.6,0 10.1,-0.3c0.5,-0.1 0.9,0.4 0.7,0.9c-0.9,2.7 -4.7,10.2 -15.2,9.6c-9.1,-1 -10,-7.4 -9.7,-12.3z" fill="none" fill-rule="evenodd" stroke="#ffffff" stroke-width="1.2" stroke-linecap="round" stroke-linejoin="round"/><path d="M283.9,181.45445c-4.7,3.8 -11.9,3.9 -11.9,3.9" fill="#ffffff" fill-rule="evenodd" stroke="#ffffff" stroke-width="1.2" stroke-linecap="round" stroke-linejoin="round"/><path d="M282.6,192.65445c-6.3,0.5 -10.2,-1.4 -10.2,-1.4" fill="#ffffff" fill-rule="evenodd" stroke="#ffffff" stroke-width="1.2" stroke-linecap="round" stroke-linejoin="round"/><path d="M203.6,181.15445c0,0 8.6,2.8 12.1,5.9" fill="#ffffff" fill-rule="evenodd" stroke="#ffffff" stroke-width="1.2" stroke-linecap="round" stroke-linejoin="round"/><path d="M216,190.55445c-4.3,1.7 -11.7,0.6 -11.7,0.6" fill="#ffffff" fill-rule="evenodd" stroke="#ffffff" stroke-width="1.2" stroke-linecap="round" stroke-linejoin="round"/></g></g></svg>